Normalized EMG Linear Envelopes
nRows=201
nColumns=4

endheader
time	 med_gas_r	  soleus_r	 tib_ant_r	
6.55343	  0.031105	  0.168665	  0.022658	
6.58669	  0.030764	  0.169945	  0.022714	
6.61996	  0.030521	  0.168259	  0.023004	
6.65323	  0.030397	  0.164484	  0.023435	
6.68649	  0.030451	  0.161705	  0.023903	
6.71976	  0.030868	  0.161823	  0.024271	
6.75302	  0.031654	  0.164097	  0.024467	
6.78629	  0.032577	  0.166551	  0.024696	
6.81956	  0.033342	  0.166981	  0.024950	
6.85282	  0.033936	  0.164982	  0.025194	
6.88609	  0.034505	  0.163000	  0.025541	
6.91935	  0.035112	  0.162783	  0.025777	
6.95262	  0.035897	  0.164751	  0.025757	
6.98589	  0.036644	  0.167780	  0.025510	
7.01915	  0.036918	  0.169214	  0.025087	
7.05242	  0.036831	  0.166329	  0.024796	
7.08569	  0.036764	  0.161218	  0.024745	
7.11895	  0.036886	  0.157337	  0.024670	
7.15222	  0.037154	  0.156072	  0.024335	
7.18548	  0.037236	  0.157052	  0.023844	
7.21875	  0.036812	  0.158066	  0.023551	
7.25202	  0.035956	  0.157312	  0.023730	
7.28528	  0.035186	  0.156704	  0.024122	
7.31855	  0.034777	  0.158410	  0.024158	
7.35181	  0.034719	  0.162600	  0.023603	
7.38508	  0.035036	  0.167518	  0.022704	
7.41835	  0.035670	  0.169893	  0.021853	
7.45161	  0.036448	  0.166853	  0.021271	
7.48488	  0.037292	  0.160794	  0.021096	
7.51815	  0.038074	  0.156007	  0.021183	
7.55141	  0.038607	  0.154799	  0.021084	
7.58468	  0.039044	  0.156560	  0.020780	
7.61794	  0.039458	  0.158938	  0.020719	
7.65121	  0.039725	  0.160113	  0.021218	
7.68448	  0.039828	  0.160623	  0.022306	
7.71774	  0.039720	  0.162355	  0.023589	
7.75101	  0.039438	  0.166121	  0.024564	
7.78427	  0.039155	  0.171127	  0.025045	
7.81754	  0.038897	  0.175882	  0.025163	
7.85081	  0.038584	  0.178256	  0.025158	
7.88407	  0.038207	  0.178118	  0.024945	
7.91734	  0.037842	  0.176786	  0.024309	
7.9506	  0.037602	  0.174888	  0.023416	
7.98387	  0.037597	  0.173722	  0.022748	
8.01714	  0.037717	  0.173146	  0.022445	
8.0504	  0.037839	  0.170976	  0.022506	
8.08367	  0.037895	  0.167626	  0.022775	
8.11694	  0.037772	  0.165478	  0.023126	
8.1502	  0.037330	  0.166266	  0.023280	
8.18347	  0.036530	  0.170960	  0.023229	
8.21673	  0.035887	  0.178076	  0.023072	
8.25	  0.035735	  0.183929	  0.022820	
8.28327	  0.036091	  0.185023	  0.022512	
8.31653	  0.036884	  0.183094	  0.022114	
8.3498	  0.037961	  0.181404	  0.021924	
8.38306	  0.039004	  0.181532	  0.022075	
8.41633	  0.039589	  0.183303	  0.022329	
8.4496	  0.039623	  0.184731	  0.022511	
8.48286	  0.039134	  0.183065	  0.022579	
8.51613	  0.038332	  0.179231	  0.022435	
8.5494	  0.037499	  0.176673	  0.022270	
8.58266	  0.036693	  0.177471	  0.022146	
8.61593	  0.036108	  0.181503	  0.022015	
8.64919	  0.035987	  0.186765	  0.021906	
8.68246	  0.036385	  0.191371	  0.021896	
8.71573	  0.037227	  0.195745	  0.021844	
8.74899	  0.038433	  0.202229	  0.021790	
8.78226	  0.040161	  0.212216	  0.021886	
8.81552	  0.042490	  0.224200	  0.021973	
8.84879	  0.045286	  0.237055	  0.021878	
8.88206	  0.048397	  0.250144	  0.021318	
8.91532	  0.051520	  0.263794	  0.020283	
8.94859	  0.054457	  0.277418	  0.019102	
8.98185	  0.057039	  0.288955	  0.017952	
9.01512	  0.059325	  0.295807	  0.017163	
9.04839	  0.061312	  0.298749	  0.016893	
9.08165	  0.063323	  0.300761	  0.017054	
9.11492	  0.065804	  0.303350	  0.017392	
9.14819	  0.069018	  0.307446	  0.017826	
9.18145	  0.072842	  0.312862	  0.018471	
9.21472	  0.077249	  0.321313	  0.019349	
9.24798	  0.081960	  0.334457	  0.020442	
9.28125	  0.086776	  0.352586	  0.021714	
9.31452	  0.091598	  0.373181	  0.023080	
9.34778	  0.096334	  0.391969	  0.024304	
9.38105	  0.101196	  0.406945	  0.025163	
9.41431	  0.106150	  0.420587	  0.025871	
9.44758	  0.110729	  0.433754	  0.026612	
9.48085	  0.114858	  0.444567	  0.027405	
9.51411	  0.118450	  0.450839	  0.028166	
9.54738	  0.121782	  0.453016	  0.028639	
9.58065	  0.125068	  0.454937	  0.028779	
9.61391	  0.128442	  0.458160	  0.028913	
9.64718	  0.131781	  0.464806	  0.029316	
9.68044	  0.135349	  0.474713	  0.030212	
9.71371	  0.139589	  0.483598	  0.031572	
9.74698	  0.144571	  0.489089	  0.033071	
9.78024	  0.150387	  0.492176	  0.034477	
9.81351	  0.157081	  0.493857	  0.035864	
9.84677	  0.164787	  0.494241	  0.037206	
9.88004	  0.172579	  0.491944	  0.038350	
9.91331	  0.179350	  0.486405	  0.038987	
9.94657	  0.183936	  0.479543	  0.039241	
9.97984	  0.184866	  0.476237	  0.039306	
10.0131	  0.182803	  0.480373	  0.039363	
10.0464	  0.178733	  0.492019	  0.039562	
10.0796	  0.174001	  0.507889	  0.039747	
10.1129	  0.170296	  0.525113	  0.039836	
10.1462	  0.168125	  0.543476	  0.039791	
10.1794	  0.167614	  0.561521	  0.039761	
10.2127	  0.168609	  0.573464	  0.039805	
10.246	  0.170980	  0.577043	  0.039935	
10.2792	  0.174629	  0.573593	  0.040267	
10.3125	  0.178732	  0.565883	  0.040784	
10.3458	  0.182322	  0.556168	  0.041312	
10.379	  0.184934	  0.546803	  0.041779	
10.4123	  0.185734	  0.539944	  0.042507	
10.4456	  0.185275	  0.534369	  0.043535	
10.4788	  0.184271	  0.529915	  0.044607	
10.5121	  0.183080	  0.529180	  0.045334	
10.5454	  0.182123	  0.532805	  0.045950	
10.5786	  0.181308	  0.538081	  0.046875	
10.6119	  0.180066	  0.541962	  0.048031	
10.6452	  0.179083	  0.542794	  0.049042	
10.6784	  0.179118	  0.542000	  0.049800	
10.7117	  0.180431	  0.542498	  0.050147	
10.745	  0.182524	  0.549438	  0.049813	
10.7782	  0.184327	  0.564157	  0.048835	
10.8115	  0.185587	  0.583600	  0.047607	
10.8448	  0.186894	  0.605587	  0.046638	
10.878	  0.188632	  0.625116	  0.046016	
10.9113	  0.190838	  0.639170	  0.045573	
10.9446	  0.193911	  0.649218	  0.045517	
10.9778	  0.197856	  0.656532	  0.046175	
11.0111	  0.201828	  0.661012	  0.047399	
11.0444	  0.204969	  0.664736	  0.048768	
11.0776	  0.206137	  0.664742	  0.049724	
11.1109	  0.204505	  0.657000	  0.050097	
11.1442	  0.201220	  0.643759	  0.050278	
11.1774	  0.197612	  0.629961	  0.050391	
11.2107	  0.193894	  0.620425	  0.050160	
11.244	  0.189753	  0.617821	  0.049520	
11.2772	  0.186038	  0.620809	  0.048616	
11.3105	  0.184469	  0.627081	  0.047650	
11.3437	  0.186051	  0.635136	  0.046825	
11.377	  0.190019	  0.643146	  0.046255	
11.4103	  0.194209	  0.645990	  0.045853	
11.4435	  0.196906	  0.640279	  0.045314	
11.4768	  0.198305	  0.627242	  0.044667	
11.5101	  0.199583	  0.614645	  0.044333	
11.5433	  0.201081	  0.608122	  0.044307	
11.5766	  0.202519	  0.606744	  0.044296	
11.6099	  0.204208	  0.609153	  0.044024	
11.6431	  0.206387	  0.617199	  0.043508	
11.6764	  0.208724	  0.631887	  0.043175	
11.7097	  0.210080	  0.651710	  0.043178	
11.7429	  0.208787	  0.672147	  0.043533	
11.7762	  0.204725	  0.688023	  0.043993	
11.8095	  0.199326	  0.698004	  0.044146	
11.8427	  0.194661	  0.705820	  0.043892	
11.876	  0.191708	  0.712855	  0.043758	
11.9093	  0.190735	  0.717236	  0.043989	
11.9425	  0.191739	  0.716406	  0.044501	
11.9758	  0.194318	  0.710501	  0.045131	
12.0091	  0.197443	  0.703166	  0.045816	
12.0423	  0.200286	  0.694163	  0.046760	
12.0756	  0.202906	  0.681257	  0.048116	
12.1089	  0.205626	  0.665080	  0.049798	
12.1421	  0.208579	  0.650329	  0.051445	
12.1754	  0.212345	  0.644003	  0.052788	
12.2087	  0.217282	  0.648035	  0.053846	
12.2419	  0.222444	  0.658843	  0.054679	
12.2752	  0.226256	  0.671258	  0.055160	
12.3085	  0.227839	  0.683339	  0.055053	
12.3417	  0.227067	  0.692587	  0.054422	
12.375	  0.224454	  0.697509	  0.053218	
12.4083	  0.220461	  0.695599	  0.051589	
12.4415	  0.214964	  0.684590	  0.049831	
12.4748	  0.207931	  0.663063	  0.048343	
12.5081	  0.199546	  0.633202	  0.047544	
12.5413	  0.190816	  0.600599	  0.047528	
12.5746	  0.182988	  0.571402	  0.048145	
12.6079	  0.175773	  0.543693	  0.049322	
12.6411	  0.168070	  0.510295	  0.051345	
12.6744	  0.159362	  0.468603	  0.054129	
12.7077	  0.150297	  0.424423	  0.057066	
12.7409	  0.141810	  0.383854	  0.059171	
12.7742	  0.134644	  0.351800	  0.059904	
12.8075	  0.129217	  0.329977	  0.059069	
12.8407	  0.125920	  0.317942	  0.057100	
12.874	  0.125135	  0.314317	  0.054718	
12.9073	  0.126662	  0.316680	  0.052509	
12.9405	  0.129059	  0.320717	  0.050983	
12.9738	  0.129957	  0.322991	  0.050367	
13.0071	  0.127265	  0.320209	  0.050600	
13.0403	  0.122158	  0.311783	  0.051307	
13.0736	  0.116557	  0.300177	  0.051336	
13.1069	  0.112219	  0.288952	  0.049958	
13.1401	  0.109976	  0.280027	  0.047423	
13.1734	  0.109958	  0.274086	  0.044283	
13.2067	  0.111145	  0.269496	  0.041075	
